<svg id="visual" viewBox="0 0 900 600" width="900" height="600" xmlns="http://www.w3.org/2000/svg" xmlns:xlink="http://www.w3.org/1999/xlink" version="1.1"><rect x="0" y="0" width="900" height="600" fill="#001220"></rect><path d="M0 361L21.5 370.7C43 380.3 86 399.7 128.8 404.7C171.7 409.7 214.3 400.3 257.2 403.8C300 407.3 343 423.7 385.8 424.3C428.7 425 471.3 410 514.2 406C557 402 600 409 642.8 411C685.7 413 728.3 410 771.2 400.5C814 391 857 375 878.5 367L900 359L900 601L878.5 601C857 601 814 601 771.2 601C728.3 601 685.7 601 642.8 601C600 601 557 601 514.2 601C471.3 601 428.7 601 385.8 601C343 601 300 601 257.2 601C214.3 601 171.7 601 128.8 601C86 601 43 601 21.5 601L0 601Z" fill="#e469fa"></path><path d="M0 398L21.5 404.3C43 410.7 86 423.3 128.8 434.8C171.7 446.3 214.3 456.7 257.2 458.3C300 460 343 453 385.8 452.7C428.7 452.3 471.3 458.7 514.2 450.2C557 441.7 600 418.3 642.8 412.5C685.7 406.7 728.3 418.3 771.2 428.5C814 438.7 857 447.3 878.5 451.7L900 456L900 601L878.5 601C857 601 814 601 771.2 601C728.3 601 685.7 601 642.8 601C600 601 557 601 514.2 601C471.3 601 428.7 601 385.8 601C343 601 300 601 257.2 601C214.3 601 171.7 601 128.8 601C86 601 43 601 21.5 601L0 601Z" fill="#ce51fa"></path><path d="M0 490L21.5 493.5C43 497 86 504 128.8 504.8C171.7 505.7 214.3 500.3 257.2 497.8C300 495.3 343 495.7 385.8 495C428.7 494.3 471.3 492.7 514.2 491.5C557 490.3 600 489.7 642.8 483.5C685.7 477.3 728.3 465.7 771.2 462C814 458.3 857 462.7 878.5 464.8L900 467L900 601L878.5 601C857 601 814 601 771.2 601C728.3 601 685.7 601 642.8 601C600 601 557 601 514.2 601C471.3 601 428.7 601 385.8 601C343 601 300 601 257.2 601C214.3 601 171.7 601 128.8 601C86 601 43 601 21.5 601L0 601Z" fill="#b339fb"></path><path d="M0 533L21.5 530.3C43 527.7 86 522.3 128.8 521.5C171.7 520.7 214.3 524.3 257.2 528C300 531.7 343 535.3 385.8 528.5C428.7 521.7 471.3 504.3 514.2 504.2C557 504 600 521 642.8 528.5C685.7 536 728.3 534 771.2 531.8C814 529.7 857 527.3 878.5 526.2L900 525L900 601L878.5 601C857 601 814 601 771.2 601C728.3 601 685.7 601 642.8 601C600 601 557 601 514.2 601C471.3 601 428.7 601 385.8 601C343 601 300 601 257.2 601C214.3 601 171.7 601 128.8 601C86 601 43 601 21.5 601L0 601Z" fill="#9220fd"></path><path d="M0 533L21.5 532.3C43 531.7 86 530.3 128.8 532.5C171.7 534.7 214.3 540.3 257.2 543.3C300 546.3 343 546.7 385.8 547.8C428.7 549 471.3 551 514.2 555C557 559 600 565 642.8 563.7C685.7 562.3 728.3 553.7 771.2 553.7C814 553.7 857 562.3 878.5 566.7L900 571L900 601L878.5 601C857 601 814 601 771.2 601C728.3 601 685.7 601 642.8 601C600 601 557 601 514.2 601C471.3 601 428.7 601 385.8 601C343 601 300 601 257.2 601C214.3 601 171.7 601 128.8 601C86 601 43 601 21.5 601L0 601Z" fill="#6600ff"></path></svg>